HIERARCHY
ROOT Hips
{
  OFFSET 0 89.5177 0.535
  CHANNELS 6 Xposition Yposition Zposition Zrotation Xrotation Yrotation
  JOINT Spine
  {
    OFFSET 12.0259 -0.162855 1.69034e-005
    CHANNELS 3 Zrotation Xrotation Yrotation
    JOINT Spine1
    {
      OFFSET 15.3169 -0.0121922 0
      CHANNELS 3 Zrotation Xrotation Yrotation
      JOINT Spine2
      {
        OFFSET 15.3176 -0.0121908 0
        CHANNELS 3 Zrotation Xrotation Yrotation
        JOINT Neck
        {
          OFFSET 19.9142 1.56338 0
          CHANNELS 3 Zrotation Xrotation Yrotation
          JOINT Head
          {
            OFFSET 6.92651 0 0
            CHANNELS 3 Zrotation Xrotation Yrotation
            End Site
            {
              OFFSET 20.7666 0 0
            }
          }
          JOINT LeftShoulder
          {
            OFFSET -6.20654 0.708824 7.28219
            CHANNELS 3 Zrotation Xrotation Yrotation
            JOINT LeftArm
            {
              OFFSET 14.108 0 -1.52588e-005
              CHANNELS 3 Zrotation Xrotation Yrotation
              JOINT LeftForeArm
              {
                OFFSET 28.5802 0 0
                CHANNELS 3 Zrotation Xrotation Yrotation
                JOINT LeftHand
                {
                  OFFSET 27.092 0 0
                  CHANNELS 3 Zrotation Xrotation Yrotation
                  End Site
                  {
                    OFFSET 9.55928 -0.186424 0.145352
                  }
                }
              }
            }
          }
          JOINT RightShoulder
          {
            OFFSET -6.20654 0.708866 -7.28218
            CHANNELS 3 Zrotation Xrotation Yrotation
            JOINT RightArm
            {
              OFFSET 14.108 0 1.52588e-005
              CHANNELS 3 Zrotation Xrotation Yrotation
              JOINT RightForeArm
              {
                OFFSET 28.5802 0 0
                CHANNELS 3 Zrotation Xrotation Yrotation
                JOINT RightHand
                {
                  OFFSET 27.092 0 0
                  CHANNELS 3 Zrotation Xrotation Yrotation
                  End Site
                  {
                    OFFSET 9.55929 -0.186417 -0.145354
                  }
                }
              }
            }
          }
        }
      }
    }
  }
  JOINT LeftUpLeg
  {
    OFFSET 0.005 -0.535 8.837
    CHANNELS 3 Zrotation Xrotation Yrotation
    JOINT LeftLeg
    {
      OFFSET 39.9035 0 0
      CHANNELS 3 Zrotation Xrotation Yrotation
      JOINT LeftFoot
      {
        OFFSET 39.6689 0 0
        CHANNELS 3 Zrotation Xrotation Yrotation
        JOINT LeftToe
        {
          OFFSET 10.1624 13.6296 0
          CHANNELS 3 Zrotation Xrotation Yrotation
          End Site
          {
            OFFSET 8.38147 0 0
          }
        }
      }
    }
  }
  JOINT RightUpLeg
  {
    OFFSET 0.005 -0.535 -8.837
    CHANNELS 3 Zrotation Xrotation Yrotation
    JOINT RightLeg
    {
      OFFSET 39.9035 0 0
      CHANNELS 3 Zrotation Xrotation Yrotation
      JOINT RightFoot
      {
        OFFSET 39.6689 0 0
        CHANNELS 3 Zrotation Xrotation Yrotation
        JOINT RightToe
        {
          OFFSET 10.1624 13.6296 0
          CHANNELS 3 Zrotation Xrotation Yrotation
          End Site
          {
            OFFSET 8.38147 0 0
          }
        }
      }
    }
  }
}
MOTION
Frames:	14
Frame Time:	0.0333333
136.022 88.4902 -146.575 -179.167 -84.3294 91.9104 -0.686866 -0.899666 -0.695436 -1.38485 -1.7904 -1.40169 -1.38485 -1.7904 -1.4017 -8.30669e-012 -9.0191e-006 -5.27751e-005 13.9218 -0.101425 -0.188821 -177.715 -31.0317 -85.5745 -33.4253 -48.8508 -1.15806 -6.29479 6.36111e-015 1.59028e-015 -27.7871 -52.3561 -30.9404 -179.332 22.4228 88.25 -32.2302 36.5405 2.22162 -6.2388 0 -0 -64.2021 68.8322 67.2727 -0.615032 9.58793 -178.473 -6.46885 0 -0 11.582 4.99291 -5.53223 90 4.98515e-016 -0 -3.91601 -17.2556 177.675 -11.3835 -3.18056e-015 7.95139e-016 13.3736 0.115196 1.82364 90 -3.03321e-021 -3.18055e-015 
136.019 88.4894 -146.571 -179.16 -84.3258 91.9195 -0.679669 -0.898492 -0.694879 -1.37043 -1.78814 -1.40045 -1.37043 -1.78814 -1.40046 -8.30748e-012 -9.0191e-006 -5.27751e-005 13.9074 -0.1169 -0.227247 -177.633 -31.0127 -85.413 -33.6779 -48.6042 -1.47781 -6.14924 6.36111e-015 -7.95139e-016 -27.7651 -52.3386 -30.9149 -179.324 22.4843 88.2343 -32.2116 36.5398 2.23669 -6.14954 3.18055e-015 -7.95139e-016 -64.1 68.8804 67.1623 -0.584675 9.57166 -178.485 -6.40181 0 -3.97569e-016 11.5469 4.97278 -5.49303 90 -1.2424e-017 1.59028e-015 -3.93829 -17.2335 177.666 -11.4093 -3.18056e-015 7.95139e-016 13.3813 0.128182 1.82556 90 1.21329e-020 -0 
136.011 88.4888 -146.572 -179.218 -84.3249 91.8722 -0.681173 -0.912947 -0.691883 -1.37535 -1.81707 -1.39511 -1.37535 -1.81707 -1.39512 -8.30788e-012 -9.0191e-006 -5.27751e-005 13.9574 -0.0499341 -0.27491 -177.639 -31.0353 -85.4273 -33.6042 -48.5254 -1.4636 -6.08336 9.54166e-015 -0 -27.8711 -52.3516 -31.0272 -179.34 22.4568 88.2738 -32.0973 36.5698 2.17264 -6.199 -3.18055e-015 -0 -64.1678 68.8827 67.2285 -0.627967 9.58071 -178.491 -6.47989 3.18055e-015 -0 11.5824 4.984 -5.52165 90 1.77043e-016 1.59028e-015 -3.97201 -17.2492 177.642 -11.4534 0 -1.59028e-015 13.3986 0.118147 1.8301 90 4.85314e-020 -0 
136.008 88.4884 -146.579 -179.314 -84.3238 91.7771 -0.684064 -0.924808 -0.688385 -1.38382 -1.8408 -1.38786 -1.38382 -1.8408 -1.38786 -8.30708e-012 -9.0191e-006 -5.27751e-005 14.0482 -0.010893 -0.306951 -177.639 -31.044 -85.4284 -33.6093 -48.6433 -1.52205 -6.01356 6.36111e-015 -7.95139e-016 -27.8184 -52.3607 -30.9738 -179.338 22.4555 88.2668 -32.0734 36.5877 2.19753 -6.22401 6.36111e-015 7.95139e-016 -64.16 68.8711 67.2247 -0.576087 9.55725 -178.506 -6.39215 1.59028e-015 -0 11.5458 4.97827 -5.49284 90 -7.14382e-017 -0 -3.95629 -17.2413 177.64 -11.4387 0 7.95139e-016 13.3994 0.133446 1.83393 90 -1.36495e-020 3.18055e-015 
136 88.488 -146.585 -179.129 -84.3264 91.9647 -0.688477 -0.929151 -0.686867 -1.38831 -1.84945 -1.38494 -1.38831 -1.84945 -1.38495 -8.30748e-012 -9.0191e-006 -5.27751e-005 14.1466 0.00541552 -0.29606 -177.623 -31.0895 -85.403 -33.7602 -48.6163 -1.69603 -5.91282 -3.18055e-015 -2.38542e-015 -27.859 -52.3112 -31.0086 -179.342 22.4554 88.2783 -32.0259 36.4907 2.19878 -6.2559 -6.36111e-015 -1.59028e-015 -64.1592 68.8751 67.2237 -0.531413 9.56955 -178.529 -6.32978 0 -0 11.5222 4.96799 -5.46052 90 -3.10601e-016 1.59028e-015 -3.96021 -17.2533 177.624 -11.4457 -3.18056e-015 -7.95139e-016 13.3999 0.116462 1.84718 90 0 -3.18055e-015 
135.998 88.4877 -146.603 -178.969 -84.3444 92.1266 -0.692361 -0.930911 -0.682286 -1.38321 -1.84348 -1.37622 -1.38321 -1.84348 -1.37623 -8.30669e-012 -9.0191e-006 -5.27751e-005 14.2295 -0.0464795 -0.277017 -177.603 -31.1007 -85.3662 -33.8846 -48.6155 -1.85099 -5.94179 9.54166e-015 2.38542e-015 -27.9378 -52.3281 -31.0933 -179.334 22.5106 88.2616 -32.0845 36.5255 2.26419 -6.238 -6.36111e-015 7.95139e-016 -64.1603 68.8813 67.2242 -0.492155 9.59349 -178.523 -6.31181 3.18055e-015 3.97569e-016 11.5256 4.97429 -5.49448 90 2.79541e-016 1.59028e-015 -3.9202 -17.2317 177.632 -11.4262 0 -1.59028e-015 13.3998 0.115937 1.84435 90 -1.94126e-019 6.36111e-015 
135.991 88.4875 -146.617 -178.775 -84.3477 92.3222 -0.696028 -0.932271 -0.677807 -1.39397 -1.85576 -1.36691 -1.39397 -1.85576 -1.36692 -8.30788e-012 -9.0191e-006 -5.27751e-005 14.3079 -0.0182815 -0.268913 -177.616 -31.1606 -85.3995 -33.9184 -48.55 -1.87684 -5.96149 -6.36111e-015 -7.95139e-016 -27.9387 -52.3449 -31.0966 -179.353 22.4818 88.3092 -32.0802 36.5272 2.25573 -6.23906 6.36111e-015 -0 -64.1639 68.8835 67.2275 -0.370863 9.58571 -178.553 -6.11272 3.18055e-015 -0 11.4402 4.94922 -5.43797 90 8.38623e-016 -0 -3.91221 -17.2622 177.627 -11.4221 0 -7.95139e-016 13.4008 0.0805598 1.85025 90 1.94126e-019 -0 
135.983 88.4871 -146.631 -178.789 -84.3512 92.3093 -0.697687 -0.934212 -0.6767 -1.40663 -1.85958 -1.36482 -1.40663 -1.85958 -1.36483 -8.30788e-012 -9.0191e-006 -5.27751e-005 14.3647 -0.0229815 -0.244602 -177.629 -31.1685 -85.4259 -33.9909 -48.4657 -1.96331 -5.96055 3.18055e-015 -7.95139e-016 -28.0583 -52.3101 -31.216 -179.342 22.5126 88.2811 -32.1799 36.4288 2.35849 -6.24986 -6.36111e-015 -1.59028e-015 -64.1471 68.9003 67.2092 -0.366798 9.59355 -178.563 -6.13339 0 -0 11.4604 4.94982 -5.44798 90 0 -0 -3.87955 -17.1991 177.617 -11.3895 3.18056e-015 7.95139e-016 13.399 0.130245 1.86536 90 -9.70628e-020 -0 
135.975 88.487 -146.647 -178.755 -84.3775 92.3449 -0.697579 -0.935955 -0.670913 -1.40207 -1.8603 -1.35347 -1.40207 -1.8603 -1.35348 -8.30748e-012 -9.0191e-006 -5.27751e-005 14.3632 -0.00920025 -0.284594 -177.626 -31.2101 -85.4246 -34.1504 -48.625 -2.02951 -5.89614 1.27222e-014 7.95139e-016 -27.988 -52.3102 -31.1427 -179.348 22.5411 88.3007 -32.2488 36.5176 2.3935 -6.29461 0 1.59028e-015 -64.1691 68.8832 67.2326 -0.329188 9.60206 -178.566 -6.13315 -1.59028e-015 -3.97569e-016 11.4713 4.95921 -5.46577 90 -3.26131e-017 7.95139e-016 -3.83404 -17.2387 177.617 -11.3699 6.36111e-015 -0 13.3997 0.100951 1.87091 90 0 -3.18055e-015 
135.969 88.4866 -146.657 -178.588 -84.3899 92.5141 -0.697436 -0.937913 -0.666786 -1.39713 -1.8604 -1.34492 -1.39714 -1.8604 -1.34492 -8.30788e-012 -9.0191e-006 -5.27751e-005 14.3275 0.0245344 -0.331051 -177.618 -31.2517 -85.4165 -34.1639 -48.4682 -2.00317 -5.96377 -3.18055e-015 -1.59028e-015 -27.9213 -52.3258 -31.0756 -179.346 22.5299 88.295 -32.2995 36.4931 2.44143 -6.34808 -6.36111e-015 -0 -64.1758 68.8786 67.2397 -0.303164 9.63103 -178.567 -6.12197 0 7.95139e-016 11.4729 4.96587 -5.4795 90 4.96962e-017 -2.38542e-015 -3.81811 -17.211 177.617 -11.3701 -3.18056e-015 -7.95139e-016 13.3994 0.102607 1.87065 90 0 -3.18055e-015 
135.954 88.4863 -146.669 -178.696 -84.3998 92.4059 -0.697309 -0.939849 -0.666956 -1.39611 -1.8602 -1.33691 -1.39611 -1.8602 -1.33692 -8.30708e-012 -9.0191e-006 -5.27751e-005 14.2114 0.0600976 -0.377392 -177.617 -31.2382 -85.4121 -34.1992 -48.5218 -1.97771 -5.89578 3.18055e-015 -1.59028e-015 -28.0503 -52.3324 -31.211 -179.332 22.5468 88.2588 -32.3928 36.4695 2.54415 -6.34328 -3.18055e-015 1.59028e-015 -64.1763 68.8787 67.2402 -0.240833 9.60833 -178.589 -6.04318 -1.59028e-015 -0 11.4448 4.95639 -5.44824 90 -1.80149e-016 1.59028e-015 -3.7945 -17.2325 177.605 -11.3534 0 -0 13.3991 0.103698 1.88589 90 4.85314e-020 3.18055e-015 
135.94 88.4857 -146.68 -179.079 -84.393 92.0219 -0.697139 -0.941526 -0.667408 -1.39585 -1.87084 -1.33693 -1.39585 -1.87084 -1.33694 -8.30708e-012 -9.0191e-006 -5.27751e-005 14.1141 0.0615967 -0.337159 -177.619 -31.2549 -85.4181 -34.2988 -48.714 -1.94178 -5.77586 -6.36111e-015 -1.59028e-015 -28.1752 -52.3211 -31.3395 -179.341 22.5329 88.2802 -32.3611 36.4309 2.50351 -6.37395 6.36111e-015 7.95139e-016 -64.161 68.892 67.2238 -0.315295 9.59887 -178.58 -6.17874 1.59028e-015 -3.97569e-016 11.5156 4.97972 -5.48976 90 -1.52195e-016 1.59028e-015 -3.77767 -17.2466 177.598 -11.3263 0 7.95139e-016 13.3984 0.114349 1.90021 90 -3.88251e-019 3.18055e-015 
135.929 88.4851 -146.686 -178.965 -84.3877 92.138 -0.69693 -0.942706 -0.668053 -1.39555 -1.87107 -1.33707 -1.39555 -1.87107 -1.33708 -8.30629e-012 -9.0191e-006 -5.27751e-005 14.0067 0.0709369 -0.322313 -177.612 -31.2431 -85.403 -34.2005 -48.7088 -1.85762 -5.84764 9.54166e-015 1.59028e-015 -28.2426 -52.296 -31.406 -179.328 22.5128 88.2462 -32.3881 36.4221 2.51287 -6.3812 6.36111e-015 1.59028e-015 -64.1151 68.9122 67.1774 -0.356546 9.61946 -178.579 -6.26035 -1.59028e-015 -3.97569e-016 11.5609 4.98689 -5.51688 90 -9.31803e-018 7.95139e-016 -3.77771 -17.2153 177.589 -11.3224 3.18056e-015 1.59028e-015 13.3975 0.13504 1.90881 90 -1.94126e-019 -3.18055e-015 
135.915 88.4845 -146.694 -179.081 -84.3825 92.0211 -0.696687 -0.943152 -0.668803 -1.39555 -1.87767 -1.33743 -1.39555 -1.87767 -1.33744 -8.30788e-012 -9.0191e-006 -5.27751e-005 13.9597 0.0138676 -0.324356 -177.583 -31.2315 -85.3467 -34.1531 -48.51 -1.8488 -5.87206 9.54166e-015 3.18055e-015 -28.1762 -52.3028 -31.3377 -179.341 22.5049 88.2797 -32.3706 36.4257 2.45256 -6.43924 -3.18055e-015 -1.59028e-015 -64.1519 68.927 67.2107 -0.338716 9.60111 -178.598 -6.23039 0 -0 11.5524 4.97774 -5.48821 90 3.37002e-016 -0 -3.78114 -17.259 177.571 -11.3179 -3.18056e-015 -7.95139e-016 13.398 0.111415 1.92822 90 0 -0 
